<?xml version="1.0" encoding="UTF-8" standalone="no"?>
<svg width="100px" height="1564px" viewBox="0 0 100 1564" version="1.1" xmlns="http://www.w3.org/2000/svg" xmlns:xlink="http://www.w3.org/1999/xlink" xmlns:sketch="http://www.bohemiancoding.com/sketch/ns">
    <!-- Generator: Sketch Beta 3.0.4 (8156) - http://www.bohemiancoding.com/sketch -->
    <title>menu_sprite</title>
    <desc>Created with Sketch Beta.</desc>
    <defs></defs>
    <g id="Page-1" stroke="none" stroke-width="1" fill="none" fill-rule="evenodd" sketch:type="MSPage">
        <g id="all" sketch:type="MSArtboardGroup" transform="translate(-169.000000, 0.000000)">
            <g id="menu_sprite" sketch:type="MSLayerGroup" transform="translate(169.000000, 0.000000)">
                <g id="Group" sketch:type="MSShapeGroup">
                    <rect id="Rectangle-path" fill="#F2F2F2" x="64" y="760" width="7" height="11"></rect>
                    <rect id="Rectangle-path" fill="#F2F2F2" x="64" y="756" width="8" height="3"></rect>
                    <rect id="Rectangle-path" fill="#232323" x="50" y="12" width="16" height="3"></rect>
                    <path d="M56,165 L59,165 L59,159 L65,159 L65,156 L59,156 L59,150 L56,150 L56,156 L50,156 L50,159 L56,159 L56,165 Z" id="Shape" fill="#CA1200"></path>
                    <g transform="translate(52.000000, 602.000000)" id="Shape" fill="#F2F2F2">
                        <path d="M14,9 L11,9 L11,4 C11,3.448 10.552,3 10,3 C9.448,3 9,3.448 9,4 L9,10 C9,10.552 9.448,11 10,11 L14,11 C14.552,11 15,10.552 15,10 C15,9.447 14.552,9 14,9 L14,9 Z"></path>
                        <path d="M10,0 C4.477,0 0,4.477 0,10 C0,15.523 4.477,20 10,20 C15.523,20 20,15.523 20,10 C20,4.477 15.523,0 10,0 L10,0 Z M10,18 C5.582,18 2,14.418 2,10 C2,5.582 5.582,2 10,2 C14.418,2 18,5.582 18,10 C18,14.418 14.418,18 10,18 L10,18 Z"></path>
                    </g>
                    <path d="M15.95,263.121 C16.089,263.375 16.237,263.62 16.404,263.834 L16.404,264.803 C17.81,265.605 18.882,266.601 20.001,267.426 L20.001,268.981 L23.012,268.981 L23.012,267.901 C22.03,267.106 21.206,266.082 19.714,265.512 L19.714,263.884 C20.494,262.911 21.007,261.401 21.007,260.264 C21.007,258.446 19.695,256.972 18.078,256.972 C17.627,256.972 17.205,257.096 16.823,257.301 C16.88,257.69 16.909,258.092 16.909,258.504 C16.908,259.904 16.574,261.618 15.95,263.121 L15.95,263.121 Z" id="Shape" fill="#CCCCCC"></path>
                    <path d="M19,802 C19,801.448 18.552,801 18,801 L6,801 C5.448,801 5,801.448 5,802 L5,822 C5,822.552 5.448,823 6,823 L18,823 C18.552,823 19,822.552 19,822 L19,802 L19,802 Z M11,803 L13,803 L13,804 L11,804 L11,803 L11,803 Z M11.995,822 C11.443,822 10.995,821.552 10.995,821 C10.995,820.448 11.443,820 11.995,820 C12.547,820 12.995,820.448 12.995,821 C12.995,821.552 12.547,822 11.995,822 L11.995,822 Z M18,819 L6,819 L6,805 L18,805 L18,819 L18,819 Z" id="Shape" fill="#A6A6A6"></path>
                    <path d="M65.745,114.339 L62.917,111.511 C62.868,111.462 62.806,111.437 62.75,111.4 C64.393,109.077 64.19,105.847 62.109,103.767 C59.785,101.442 56.016,101.442 53.691,103.767 C51.366,106.091 51.366,109.86 53.691,112.185 C55.794,114.288 59.069,114.469 61.397,112.767 C61.433,112.82 61.456,112.879 61.503,112.926 L64.331,115.754 C64.722,116.145 65.355,116.145 65.745,115.754 C66.135,115.362 66.135,114.729 65.745,114.339 L65.745,114.339 Z M60.918,110.992 C59.252,112.658 56.551,112.658 54.884,110.992 C53.218,109.326 53.218,106.624 54.884,104.958 C56.55,103.292 59.252,103.292 60.918,104.958 C62.585,106.625 62.585,109.326 60.918,110.992 L60.918,110.992 Z" id="Shape" fill="#474747"></path>
                    <rect id="Rectangle-path" fill="#232323" x="50" y="6" width="16" height="3"></rect>
                    <rect id="Rectangle-path" fill="#232323" x="50" y="0" width="16" height="3"></rect>
                    <path d="M63.92,701.988 C62.589,701.988 61.439,703.088 61.439,704.433 C61.439,705.687 62.256,706.513 63.497,706.513 C64.858,706.513 66.008,705.474 66.008,704.067 C66.008,702.813 65.131,701.988 63.92,701.988 L63.92,701.988 Z" id="Shape" fill="#F2F2F2"></path>
                    <rect id="Rectangle-path" fill="#F2F2F2" x="53" y="760" width="7" height="11"></rect>
                    <path d="M68,657 L70,657 C70.552,657 71,656.552 71,656 L71,654 C71,653.448 70.552,653 70,653 L68,653 C67.448,653 67,653.448 67,654 L67,656 C67,656.552 67.448,657 68,657 L68,657 Z" id="Shape" fill="#F2F2F2"></path>
                    <path d="M67,663 C67,663.552 67.448,664 68,664 L70,664 C70.552,664 71,663.552 71,663 L71,661 C71,660.448 70.552,660 70,660 L68,660 C67.448,660 67,660.448 67,661 L67,663 L67,663 Z" id="Shape" fill="#F2F2F2"></path>
                    <path d="M69,802 C69,801.448 68.552,801 68,801 L56,801 C55.448,801 55,801.448 55,802 L55,822 C55,822.552 55.448,823 56,823 L68,823 C68.552,823 69,822.552 69,822 L69,802 L69,802 Z M61,803 L63,803 L63,804 L61,804 L61,803 L61,803 Z M61.995,822 C61.443,822 60.995,821.552 60.995,821 C60.995,820.448 61.443,820 61.995,820 C62.547,820 62.995,820.448 62.995,821 C62.995,821.552 62.547,822 61.995,822 L61.995,822 Z M68,819 L56,819 L56,805 L68,805 L68,819 L68,819 Z" id="Shape" fill="#F2F2F2"></path>
                    <g transform="translate(54.000000, 501.000000)" id="Shape" fill="#FFFFFF">
                        <path d="M4.5,0 C3.119,0 2,1.119 2,2.5 C2,2.671 2.018,2.838 2.05,3 L4,3 L4,13 L2.5,13 C1.119,13 0,14.119 0,15.5 C0,15.671 0.018,15.838 0.05,16 L7,16 L7,22 L8,23 L9,22 L9,16.507 L8.534,16.041 L10.711,13.864 L8.617,11.77 L11.938,8.449 L12,8.512 L12,3 L13.949,3 C13.982,2.838 13.999,2.671 13.999,2.5 C13.999,1.119 12.88,0 11.499,0 L4.5,0 L4.5,0 Z"></path>
                        <path d="M9.958,11.372 L12.596,14.01 L10.021,16.597 L11.435,18.011 L14.01,15.424 L16.629,18.042 L18.043,16.628 L15.421,14.006 L18.043,11.372 L16.628,9.958 L14.007,12.592 L11.372,9.957 L9.958,11.372 Z"></path>
                    </g>
                    <g transform="translate(50.000000, 966.000000)" id="Oval" fill="#000000">
                        <circle cx="2" cy="2" r="2"></circle>
                        <circle cx="8" cy="2" r="2"></circle>
                        <circle cx="14" cy="2" r="2"></circle>
                    </g>
                    <path d="M67,670 C67,670.552 67.448,671 68,671 L70,671 C70.552,671 71,670.552 71,670 L71,668 C71,667.448 70.552,667 70,667 L68,667 C67.448,667 67,667.448 67,668 L67,670 L67,670 Z" id="Shape" fill="#F2F2F2"></path>
                    <g transform="translate(52.000000, 200.000000)" fill="#474747">
                        <path d="M6,15 C6.552,15 7,14.552 7,14 L5,14 C5,14.552 5.448,15 6,15 L6,15 Z" id="Shape"></path>
                        <path d="M2,6.4 L2,8.6 C2,10.741 0,13 0,13 L12,13 C12,13 10,10.741 10,8.6 L10,6.4 C10,2.191 6,2 6,2 C6,2 2,2.191 2,6.4 L2,6.4 Z" id="Shape"></path>
                        <circle id="Oval" cx="6" cy="1" r="1"></circle>
                    </g>
                    <path d="M53,663 C53,663.552 53.448,664 54,664 L56,664 C56.552,664 57,663.552 57,663 L57,661 C57,660.448 56.552,660 56,660 L54,660 C53.448,660 53,660.448 53,661 L53,663 L53,663 Z" id="Shape" fill="#F2F2F2"></path>
                    <path d="M56,653 L54,653 C53.448,653 53,653.448 53,654 L53,656 C53,656.552 53.448,657 54,657 L56,657 C56.552,657 57,656.552 57,656 L57,654 C57,653.448 56.553,653 56,653 L56,653 Z" id="Shape" fill="#F2F2F2"></path>
                    <path d="M53,670 C53,670.552 53.448,671 54,671 L56,671 C56.552,671 57,670.552 57,670 L57,668 C57,667.448 56.552,667 56,667 L54,667 C53.448,667 53,667.448 53,668 L53,670 L53,670 Z" id="Shape" fill="#F2F2F2"></path>
                    <rect id="Rectangle-path" fill="#F2F2F2" x="52" y="756" width="8" height="3"></rect>
                    <path d="M58.004,751.149 C57.006,750.675 55.635,751.188 55.161,752.186 C54.687,753.184 55.112,754.599 56.287,755.162 C57.283,755.639 61.187,756.499 61.662,755.501 C62.136,754.505 59.002,751.623 58.004,751.149 L58.004,751.149 Z M56.716,754.037 C56.217,753.8 56.005,753.248 56.242,752.749 C56.479,752.25 57.075,752.216 57.574,752.453 C58.073,752.69 60.092,754.145 59.855,754.644 C59.618,755.143 57.215,754.274 56.716,754.037 L56.716,754.037 Z" id="Shape" fill="#F2F2F2"></path>
                    <path d="M63,653 L61,653 C60.448,653 60,653.448 60,654 L60,656 C60,656.552 60.448,657 61,657 L63,657 C63.552,657 64,656.552 64,656 L64,654 C64,653.448 63.553,653 63,653 L63,653 Z" id="Shape" fill="#F2F2F2"></path>
                    <path d="M17,663 C17,663.552 17.448,664 18,664 L20,664 C20.552,664 21,663.552 21,663 L21,661 C21,660.448 20.552,660 20,660 L18,660 C17.448,660 17,660.448 17,661 L17,663 L17,663 Z" id="Shape" fill="#A6A6A6"></path>
                    <path d="M55.993,711.893 C55.993,712.076 56.174,712.291 56.387,712.291 C56.931,712.291 58.383,709.631 59.503,709.631 C59.745,709.631 60.018,709.906 59.806,710.456 L57.689,715.837 C57.477,716.357 56.448,718.864 56.448,720.331 C56.448,721.493 57.204,722.012 58.294,722.012 C61.35,722.012 64.889,718.221 64.889,717.335 C64.889,717.06 64.678,716.877 64.527,716.877 C64.103,716.877 62.438,719.476 61.531,719.476 C61.289,719.476 61.169,719.261 61.169,719.048 C61.169,718.559 61.502,717.794 61.683,717.336 L63.861,711.375 C64.951,708.409 63.558,707.615 62.257,707.615 C60.502,707.615 58.929,708.501 57.719,709.663 C57.324,710.059 55.993,711.342 55.993,711.893 L55.993,711.893 Z" id="Shape" fill="#F2F2F2"></path>
                    <path d="M68.84,752.186 C68.366,751.189 66.995,750.675 65.997,751.149 C64.999,751.623 61.865,754.504 62.339,755.502 C62.813,756.5 66.717,755.64 67.713,755.163 C68.889,754.6 69.314,753.184 68.84,752.186 L68.84,752.186 Z M67.284,754.037 C66.785,754.274 64.382,755.143 64.145,754.644 C63.908,754.145 65.927,752.69 66.426,752.453 C66.925,752.216 67.521,752.25 67.758,752.749 C67.995,753.248 67.783,753.8 67.284,754.037 L67.284,754.037 Z" id="Shape" fill="#F2F2F2"></path>
                    <path d="M60,663 C60,663.552 60.448,664 61,664 L63,664 C63.552,664 64,663.552 64,663 L64,661 C64,660.448 63.552,660 63,660 L61,660 C60.448,660 60,660.448 60,661 L60,663 L60,663 Z" id="Shape" fill="#F2F2F2"></path>
                    <path d="M60,670 C60,670.552 60.448,671 61,671 L63,671 C63.552,671 64,670.552 64,670 L64,668 C64,667.448 63.552,667 63,667 L61,667 C60.448,667 60,667.448 60,668 L60,670 L60,670 Z" id="Shape" fill="#F2F2F2"></path>
                    <path d="M1.014,267.879 L1.014,268.981 L4.022,268.981 L4.022,267.394 C5.143,266.548 6.182,265.533 7.596,264.728 L7.596,264.045 C7.775,263.825 7.936,263.57 8.085,263.305 C7.417,261.798 7.056,260.048 7.056,258.611 C7.056,258.16 7.095,257.721 7.164,257.296 C6.795,257.112 6.389,257.005 5.96,257.005 C4.319,257.005 2.988,258.5 2.988,260.345 C2.988,261.492 3.503,263.013 4.287,264.001 L4.287,265.514 C2.805,266.076 1.972,267.087 1.014,267.879 L1.014,267.879 Z" id="Shape" fill="#CCCCCC"></path>
                    <path d="M15.745,114.339 L12.917,111.511 C12.868,111.462 12.806,111.437 12.75,111.4 C14.393,109.077 14.19,105.847 12.109,103.767 C9.785,101.442 6.016,101.442 3.691,103.767 C1.366,106.091 1.366,109.86 3.691,112.185 C5.794,114.288 9.069,114.469 11.397,112.767 C11.433,112.82 11.456,112.879 11.503,112.926 L14.331,115.754 C14.722,116.145 15.355,116.145 15.745,115.754 C16.135,115.362 16.135,114.729 15.745,114.339 L15.745,114.339 Z M10.918,110.992 C9.252,112.658 6.551,112.658 4.884,110.992 C3.218,109.326 3.218,106.624 4.884,104.958 C6.55,103.292 9.251,103.292 10.918,104.958 C12.585,106.625 12.585,109.326 10.918,110.992 L10.918,110.992 Z" id="Shape" fill="#BBBBBB"></path>
                    <g transform="translate(2.000000, 302.000000)" id="Shape" fill="#CCCCCC">
                        <path d="M10,0 C4.477,0 0,4.477 0,10 C0,15.523 4.477,20 10,20 C15.523,20 20,15.523 20,10 C20,4.477 15.523,0 10,0 L10,0 Z M10,18 C5.582,18 2,14.418 2,10 C2,5.582 5.582,2 10,2 C14.418,2 18,5.582 18,10 C18,14.418 14.418,18 10,18 L10,18 Z"></path>
                        <path d="M14,9 L11,9 L11,4 C11,3.448 10.552,3 10,3 C9.448,3 9,3.448 9,4 L9,10 C9,10.552 9.448,11 10,11 L14,11 C14.552,11 15,10.552 15,10 C15,9.448 14.552,9 14,9 L14,9 Z"></path>
                    </g>
                    <rect id="Rectangle-path" fill="#565656" x="0" y="12" width="16" height="3"></rect>
                    <rect id="Rectangle-path" fill="#565656" x="0" y="0" width="16" height="3"></rect>
                    <rect id="Rectangle-path" fill="#565656" x="0" y="6" width="16" height="3"></rect>
                    <path d="M20,516.5 C20,515.119 18.881,514 17.5,514 L16,514 L16,504 L17.95,504 C17.983,503.838 18,503.671 18,503.5 C18,502.119 16.881,501 15.5,501 L8.5,501 C7.119,501 6,502.119 6,503.5 C6,503.671 6.018,503.838 6.05,504 L8,504 L8,514 L6.5,514 C5.119,514 4,515.119 4,516.5 C4,516.671 4.018,516.838 4.05,517 L11,517 L11,523 L12,524 L13,523 L13,517 L19.95,517 C19.983,516.838 20,516.671 20,516.5 L20,516.5 Z" id="Shape" fill="#000000"></path>
                    <g transform="translate(51.000000, 555.000000)" id="Shape" fill="#F2F2F2">
                        <path d="M0.014,13.879 L0.014,14.981 L3.022,14.981 L3.022,13.393 C4.143,12.547 5.182,11.532 6.596,10.727 L6.596,10.044 C6.775,9.824 6.936,9.569 7.085,9.303 C6.417,7.796 6.056,6.046 6.056,4.609 C6.056,4.158 6.095,3.719 6.164,3.294 C5.795,3.11 5.389,3.003 4.96,3.003 C3.319,3.003 1.988,4.499 1.988,6.343 C1.988,7.49 2.503,9.011 3.287,9.999 L3.287,11.512 C1.805,12.077 0.972,13.087 0.014,13.879 L0.014,13.879 Z"></path>
                        <path d="M14.996,4.765 C14.996,2.109 13.53,-0.044 11.002,-0.044 C8.474,-0.044 6.967,2.196 6.967,4.852 C6.967,6.749 7.74,9.309 9.101,10.62 L9.101,10.676 C6.715,11.338 5.424,12.707 3.985,13.769 L3.985,16.004 L18.039,16.004 L18.039,13.797 C16.595,12.754 15.226,11.402 12.899,10.719 L12.899,10.6 C14.246,9.261 14.996,6.661 14.996,4.765 L14.996,4.765 Z"></path>
                        <path d="M18.713,11.512 L18.713,9.884 C19.493,8.911 20.006,7.401 20.006,6.264 C20.006,4.446 18.695,2.972 17.077,2.972 C16.626,2.972 16.204,3.096 15.822,3.301 C15.879,3.69 15.908,4.092 15.908,4.504 C15.908,5.904 15.574,7.618 14.95,9.121 C15.089,9.375 15.237,9.62 15.404,9.834 L15.404,10.803 C16.81,11.605 17.882,12.601 19.001,13.426 L19.001,14.981 L22.012,14.981 L22.012,13.901 C21.029,13.106 20.206,12.082 18.713,11.512 L18.713,11.512 Z"></path>
                    </g>
                    <path d="M11.997,991.006 L8.696,998.052 L0.993,999.023 L6.656,1004.349 L5.196,1011.996 L11.997,1008.241 L18.798,1011.996 L17.338,1004.349 L23.001,999.023 L15.298,998.052 L11.997,991.006 Z" id="Shape" fill="#CCCCCC"></path>
                    <g transform="translate(1.000000, 555.000000)" id="Shape" fill="#A6A6A6">
                        <path d="M14.996,4.765 C14.996,2.109 13.53,-0.044 11.002,-0.044 C8.474,-0.044 6.967,2.196 6.967,4.852 C6.967,6.749 7.74,9.309 9.101,10.62 L9.101,10.676 C6.715,11.338 5.424,12.707 3.985,13.769 L3.985,16.004 L18.039,16.004 L18.039,13.797 C16.595,12.754 15.226,11.402 12.899,10.719 L12.899,10.6 C14.246,9.261 14.996,6.661 14.996,4.765 L14.996,4.765 Z"></path>
                        <path d="M3.022,13.393 C4.143,12.547 5.182,11.532 6.596,10.727 L6.596,10.044 C6.775,9.824 6.936,9.569 7.085,9.303 C6.417,7.796 6.056,6.046 6.056,4.609 C6.056,4.158 6.095,3.719 6.164,3.294 C5.795,3.11 5.389,3.003 4.96,3.003 C3.319,3.003 1.988,4.499 1.988,6.343 C1.988,7.49 2.503,9.011 3.287,9.999 L3.287,11.512 C1.806,12.077 0.973,13.087 0.015,13.879 L0.015,14.981 L3.023,14.981 L3.023,13.393 L3.022,13.393 Z"></path>
                        <path d="M18.713,9.884 C19.493,8.911 20.006,7.401 20.006,6.264 C20.006,4.446 18.695,2.972 17.077,2.972 C16.626,2.972 16.204,3.096 15.822,3.301 C15.879,3.69 15.908,4.092 15.908,4.504 C15.908,5.904 15.574,7.618 14.95,9.121 C15.089,9.375 15.237,9.62 15.404,9.834 L15.404,10.803 C16.81,11.605 17.882,12.601 19.001,13.426 L19.001,14.981 L22.012,14.981 L22.012,13.901 C21.03,13.106 20.206,12.082 18.714,11.512 L18.714,9.884 L18.713,9.884 Z"></path>
                    </g>
                    <path d="M6,165 L9,165 L9,159 L15,159 L15,156 L9,156 L9,150 L6,150 L6,156 L0,156 L0,159 L6,159 L6,165 Z" id="Shape" fill="#565656"></path>
                    <path d="M61.997,1041.006 L58.696,1048.052 L50.993,1049.023 L56.656,1054.349 L55.196,1061.996 L61.997,1058.241 L68.798,1061.996 L67.338,1054.349 L73.001,1049.023 L65.298,1048.052 L61.997,1041.006 Z" id="Shape" fill="#F2F2F2"></path>
                    <path d="M63.817,1142.092 C56.804,1142.184 50,1147.928 51.406,1155.327 C52.168,1159.337 54.238,1156.955 55.111,1154.813 C55.972,1152.69 58.378,1152.837 58.1,1155.465 C57.089,1165.001 65.279,1160.829 69.477,1156.535 C75,1150.88 70.83,1142 63.817,1142.092 L63.817,1142.092 Z M55.068,1151.731 C54.142,1151.998 53.227,1151.523 53.027,1150.671 C52.828,1149.818 53.416,1148.911 54.343,1148.645 C55.27,1148.379 56.183,1148.856 56.383,1149.707 C56.584,1150.559 55.996,1151.467 55.068,1151.731 L55.068,1151.731 Z M58.217,1148.593 C57.225,1148.083 56.752,1146.879 57.164,1145.903 C57.575,1144.925 58.712,1144.547 59.703,1145.054 C60.694,1145.564 61.165,1146.769 60.755,1147.744 C60.344,1148.721 59.208,1149.104 58.217,1148.593 L58.217,1148.593 Z M63.597,1157.868 C62.499,1158.394 61.3,1158.032 60.92,1157.062 C60.539,1156.091 61.122,1154.876 62.221,1154.351 C63.319,1153.826 64.517,1154.188 64.898,1155.158 C65.278,1156.129 64.696,1157.342 63.597,1157.868 L63.597,1157.868 Z M63.879,1146.342 C63.142,1146.342 62.545,1145.681 62.545,1144.868 C62.545,1144.054 63.142,1143.393 63.879,1143.393 C64.616,1143.393 65.212,1144.054 65.212,1144.868 C65.212,1145.682 64.615,1146.342 63.879,1146.342 L63.879,1146.342 Z M68.975,1149.008 C68.233,1149.331 67.347,1148.794 66.997,1147.811 C66.646,1146.825 66.961,1145.766 67.704,1145.441 C68.443,1145.118 69.33,1145.655 69.681,1146.638 C70.033,1147.624 69.716,1148.682 68.975,1149.008 L68.975,1149.008 Z" id="Shape" fill="#F2F2F2"></path>
                    <path d="M11.997,1041.006 L8.696,1048.052 L0.993,1049.023 L6.656,1054.349 L5.196,1061.996 L11.997,1058.241 L18.798,1061.996 L17.338,1054.349 L23.001,1049.023 L15.298,1048.052 L11.997,1041.006 Z" id="Shape" fill="#A6A6A6"></path>
                    <g transform="translate(0.000000, 966.000000)" id="Oval" fill="#999999">
                        <circle cx="8" cy="2" r="2"></circle>
                        <circle cx="14" cy="2" r="2"></circle>
                        <circle cx="2" cy="2" r="2"></circle>
                    </g>
                    <path d="M13.817,1092.092 C6.804,1092.184 1.77635684e-15,1097.928 1.406,1105.327 C2.168,1109.337 4.238,1106.955 5.111,1104.813 C5.972,1102.69 8.378,1102.836 8.1,1105.465 C7.089,1115.001 15.279,1110.829 19.477,1106.535 C25,1100.88 20.83,1092 13.817,1092.092 L13.817,1092.092 Z M5.068,1101.731 C4.142,1101.998 3.227,1101.523 3.027,1100.671 C2.828,1099.818 3.416,1098.911 4.343,1098.645 C5.27,1098.378 6.183,1098.855 6.383,1099.707 C6.584,1100.559 5.996,1101.467 5.068,1101.731 L5.068,1101.731 Z M8.217,1098.593 C7.225,1098.083 6.752,1096.879 7.164,1095.903 C7.575,1094.925 8.712,1094.547 9.703,1095.054 C10.694,1095.564 11.165,1096.769 10.755,1097.744 C10.344,1098.721 9.208,1099.104 8.217,1098.593 L8.217,1098.593 Z M13.597,1107.869 C12.499,1108.395 11.3,1108.033 10.92,1107.063 C10.539,1106.092 11.122,1104.877 12.221,1104.352 C13.319,1103.827 14.517,1104.189 14.898,1105.159 C15.278,1106.13 14.696,1107.342 13.597,1107.869 L13.597,1107.869 Z M13.879,1096.342 C13.142,1096.342 12.545,1095.681 12.545,1094.868 C12.545,1094.055 13.142,1093.393 13.879,1093.393 C14.616,1093.393 15.212,1094.054 15.212,1094.868 C15.212,1095.682 14.615,1096.342 13.879,1096.342 L13.879,1096.342 Z M18.975,1099.008 C18.233,1099.332 17.347,1098.794 16.997,1097.811 C16.646,1096.825 16.961,1095.766 17.704,1095.441 C18.443,1095.118 19.33,1095.655 19.681,1096.638 C20.033,1097.624 19.716,1098.682 18.975,1099.008 L18.975,1099.008 Z" id="Shape" fill="#CCCCCC"></path>
                    <path d="M13.817,1142.092 C6.804,1142.184 1.77635684e-15,1147.928 1.406,1155.327 C2.168,1159.337 4.238,1156.955 5.111,1154.813 C5.972,1152.69 8.378,1152.837 8.1,1155.465 C7.089,1165.001 15.279,1160.829 19.477,1156.535 C25,1150.88 20.83,1142 13.817,1142.092 L13.817,1142.092 Z M5.068,1151.731 C4.142,1151.998 3.227,1151.523 3.027,1150.671 C2.828,1149.818 3.416,1148.911 4.343,1148.645 C5.27,1148.379 6.183,1148.856 6.383,1149.707 C6.584,1150.559 5.996,1151.467 5.068,1151.731 L5.068,1151.731 Z M8.217,1148.593 C7.225,1148.083 6.752,1146.879 7.164,1145.903 C7.575,1144.925 8.712,1144.547 9.703,1145.054 C10.694,1145.564 11.165,1146.769 10.755,1147.744 C10.344,1148.721 9.208,1149.104 8.217,1148.593 L8.217,1148.593 Z M13.597,1157.868 C12.499,1158.394 11.3,1158.032 10.92,1157.062 C10.539,1156.091 11.122,1154.876 12.221,1154.351 C13.319,1153.826 14.517,1154.188 14.898,1155.158 C15.278,1156.129 14.696,1157.342 13.597,1157.868 L13.597,1157.868 Z M13.879,1146.342 C13.142,1146.342 12.545,1145.681 12.545,1144.868 C12.545,1144.054 13.142,1143.393 13.879,1143.393 C14.616,1143.393 15.212,1144.054 15.212,1144.868 C15.212,1145.682 14.615,1146.342 13.879,1146.342 L13.879,1146.342 Z M18.975,1149.008 C18.233,1149.331 17.347,1148.794 16.997,1147.811 C16.646,1146.825 16.961,1145.766 17.704,1145.441 C18.443,1145.118 19.33,1145.655 19.681,1146.638 C20.033,1147.624 19.716,1148.682 18.975,1149.008 L18.975,1149.008 Z" id="Shape" fill="#A6A6A6"></path>
                    <path d="M10,670 C10,670.552 10.448,671 11,671 L13,671 C13.552,671 14,670.552 14,670 L14,668 C14,667.448 13.552,667 13,667 L11,667 C10.448,667 10,667.448 10,668 L10,670 L10,670 Z" id="Shape" fill="#A6A6A6"></path>
                    <path d="M6,653 L4,653 C3.448,653 3,653.448 3,654 L3,656 C3,656.552 3.448,657 4,657 L6,657 C6.552,657 7,656.552 7,656 L7,654 C7,653.448 6.553,653 6,653 L6,653 Z" id="Shape" fill="#A6A6A6"></path>
                    <path d="M5.993,711.893 C5.993,712.076 6.174,712.291 6.386,712.291 C6.93,712.291 8.382,709.631 9.502,709.631 C9.744,709.631 10.017,709.906 9.805,710.456 L7.688,715.837 C7.476,716.357 6.447,718.864 6.447,720.331 C6.447,721.493 7.203,722.012 8.293,722.012 C11.349,722.012 14.888,718.221 14.888,717.335 C14.888,717.06 14.677,716.877 14.526,716.877 C14.102,716.877 12.437,719.476 11.53,719.476 C11.288,719.476 11.168,719.261 11.168,719.048 C11.168,718.559 11.501,717.794 11.682,717.336 L13.86,711.375 C14.95,708.409 13.557,707.615 12.256,707.615 C10.501,707.615 8.928,708.501 7.718,709.663 C7.324,710.059 5.993,711.342 5.993,711.893 L5.993,711.893 Z" id="Shape" fill="#A6A6A6"></path>
                    <path d="M8.004,751.149 C7.006,750.675 5.635,751.188 5.161,752.186 C4.687,753.184 5.112,754.599 6.287,755.162 C7.283,755.639 11.187,756.499 11.662,755.501 C12.136,754.505 9.002,751.623 8.004,751.149 L8.004,751.149 Z M6.716,754.037 C6.217,753.8 6.005,753.248 6.242,752.749 C6.479,752.25 7.075,752.216 7.574,752.453 C8.073,752.69 10.092,754.145 9.855,754.644 C9.618,755.143 7.215,754.274 6.716,754.037 L6.716,754.037 Z" id="Shape" fill="#A6A6A6"></path>
                    <path d="M3,663 C3,663.552 3.448,664 4,664 L6,664 C6.552,664 7,663.552 7,663 L7,661 C7,660.448 6.552,660 6,660 L4,660 C3.448,660 3,660.448 3,661 L3,663 L3,663 Z" id="Shape" fill="#A6A6A6"></path>
                    <g transform="translate(2.000000, 350.000000)" fill="#CCCCCC">
                        <rect id="Rectangle-path" x="11" y="5" width="8" height="3"></rect>
                        <path d="M5.004,0.149 C4.006,-0.325 2.635,0.188 2.161,1.186 C1.687,2.184 2.112,3.599 3.287,4.162 C4.283,4.639 8.187,5.499 8.661,4.501 C9.136,3.505 6.002,0.623 5.004,0.149 L5.004,0.149 Z M3.716,3.037 C3.217,2.8 3.005,2.248 3.242,1.749 C3.479,1.25 4.076,1.216 4.574,1.453 C5.073,1.69 7.092,3.145 6.855,3.644 C6.618,4.143 4.215,3.274 3.716,3.037 L3.716,3.037 Z" id="Shape"></path>
                        <rect id="Rectangle-path" x="11" y="9" width="7" height="10"></rect>
                        <rect id="Rectangle-path" x="0" y="5" width="8" height="3"></rect>
                        <rect id="Rectangle-path" x="1" y="9" width="7" height="10"></rect>
                        <path d="M16.84,1.186 C16.366,0.188 14.995,-0.325 13.997,0.149 C12.999,0.623 9.865,3.504 10.339,4.502 C10.813,5.5 14.717,4.64 15.714,4.163 C16.889,3.6 17.314,2.184 16.84,1.186 L16.84,1.186 Z M15.284,3.037 C14.785,3.274 12.382,4.143 12.145,3.644 C11.908,3.145 13.927,1.69 14.426,1.453 C14.925,1.216 15.521,1.25 15.758,1.749 C15.995,2.248 15.783,2.8 15.284,3.037 L15.284,3.037 Z" id="Shape"></path>
                    </g>
                    <path d="M13,653 L11,653 C10.448,653 10,653.448 10,654 L10,656 C10,656.552 10.448,657 11,657 L13,657 C13.552,657 14,656.552 14,656 L14,654 C14,653.448 13.553,653 13,653 L13,653 Z" id="Shape" fill="#A6A6A6"></path>
                    <path d="M10,663 C10,663.552 10.448,664 11,664 L13,664 C13.552,664 14,663.552 14,663 L14,661 C14,660.448 13.552,660 13,660 L11,660 C10.448,660 10,660.448 10,661 L10,663 L10,663 Z" id="Shape" fill="#A6A6A6"></path>
                    <path d="M18.84,752.186 C18.366,751.189 16.995,750.675 15.997,751.149 C14.999,751.623 11.865,754.504 12.339,755.502 C12.813,756.5 16.717,755.64 17.714,755.163 C18.889,754.6 19.314,753.184 18.84,752.186 L18.84,752.186 Z M17.284,754.037 C16.785,754.274 14.382,755.143 14.145,754.644 C13.908,754.145 15.927,752.69 16.426,752.453 C16.925,752.216 17.521,752.25 17.758,752.749 C17.995,753.248 17.783,753.8 17.284,754.037 L17.284,754.037 Z" id="Shape" fill="#A6A6A6"></path>
                    <path d="M17,670 C17,670.552 17.448,671 18,671 L20,671 C20.552,671 21,670.552 21,670 L21,668 C21,667.448 20.552,667 20,667 L18,667 C17.448,667 17,667.448 17,668 L17,670 L17,670 Z" id="Shape" fill="#A6A6A6"></path>
                    <path d="M13.92,701.988 C12.589,701.988 11.439,703.088 11.439,704.433 C11.439,705.687 12.256,706.513 13.497,706.513 C14.858,706.513 16.008,705.474 16.008,704.067 C16.008,702.813 15.131,701.988 13.92,701.988 L13.92,701.988 Z" id="Shape" fill="#A6A6A6"></path>
                    <rect id="Rectangle-path" fill="#A6A6A6" x="2" y="756" width="8" height="3"></rect>
                    <path d="M3,670 C3,670.552 3.448,671 4,671 L6,671 C6.552,671 7,670.552 7,670 L7,668 C7,667.448 6.552,667 6,667 L4,667 C3.448,667 3,667.448 3,668 L3,670 L3,670 Z" id="Shape" fill="#A6A6A6"></path>
                    <path d="M18,657 L20,657 C20.552,657 21,656.552 21,656 L21,654 C21,653.448 20.552,653 20,653 L18,653 C17.448,653 17,653.448 17,654 L17,656 C17,656.552 17.448,657 18,657 L18,657 Z" id="Shape" fill="#A6A6A6"></path>
                    <path d="M15.996,258.765 C15.996,256.109 14.53,253.955 12.002,253.955 C9.474,253.955 7.967,256.195 7.967,258.851 C7.967,260.748 8.74,263.308 10.101,264.619 L10.101,264.675 C7.715,265.337 6.424,266.706 4.985,267.768 L4.985,270.003 L19.039,270.003 L19.039,267.796 C17.594,266.753 16.226,265.401 13.899,264.718 L13.899,264.599 C15.246,263.261 15.996,260.661 15.996,258.765 L15.996,258.765 Z" id="Shape" fill="#CCCCCC"></path>
                    <path d="M1.047,461.783 L3.935,458.893 L6.782,461.741 C6.865,461.687 6.957,461.649 7.03,461.576 C7.6,461.006 7.6,460.082 7.03,459.512 L6.411,458.893 L10.537,454.765 L11.321,455.549 C11.404,455.495 11.496,455.457 11.569,455.384 C12.139,454.814 12.139,453.89 11.569,453.32 L8.681,450.43 C8.111,449.86 7.187,449.86 6.618,450.43 C6.545,450.503 6.508,450.595 6.453,450.678 L7.237,451.462 L3.11,455.59 L2.491,454.971 C1.921,454.401 0.997,454.401 0.428,454.971 C0.355,455.044 0.318,455.136 0.263,455.219 L3.11,458.067 L0.222,460.957 L0.222,461.783 L1.047,461.783 L1.047,461.783 Z" id="Shape" fill="#777777"></path>
                    <path d="M18,403 C18,402.448 17.552,402 17,402 L7,402 C6.448,402 6,402.448 6,403 L6,422 C6,422.552 6.448,423 7,423 L17,423 C17.552,423 18,422.552 18,422 L18,403 L18,403 Z M11,404 L13,404 L13,405 L11,405 L11,404 L11,404 Z M11.995,422 C11.443,422 10.995,421.552 10.995,421 C10.995,420.448 11.443,420 11.995,420 C12.547,420 12.995,420.448 12.995,421 C12.995,421.552 12.547,422 11.995,422 L11.995,422 Z M17,419 L7,419 L7,406 L17,406 L17,419 L17,419 Z" id="Shape" fill="#CCCCCC"></path>
                    <g transform="translate(2.000000, 200.000000)" fill="#A6A6A6">
                        <path d="M2,6.4 L2,8.6 C2,10.741 0,13 0,13 L12,13 C12,13 10,10.741 10,8.6 L10,6.4 C10,2.191 6,2 6,2 C6,2 2,2.191 2,6.4 L2,6.4 Z" id="Shape"></path>
                        <circle id="Oval" cx="6" cy="1" r="1"></circle>
                        <path d="M7,14 L5,14 C5,14.552 5.448,15 6,15 C6.552,15 7,14.552 7,14 L7,14 Z" id="Shape"></path>
                    </g>
                    <rect id="Rectangle-path" fill="#A6A6A6" x="3" y="760" width="7" height="11"></rect>
                    <rect id="Rectangle-path" fill="#A6A6A6" x="14" y="760" width="7" height="11"></rect>
                    <rect id="Rectangle-path" fill="#A6A6A6" x="14" y="756" width="8" height="3"></rect>
                    <g transform="translate(2.000000, 602.000000)" id="Shape" fill="#A6A6A6">
                        <path d="M10,0 C4.477,0 0,4.477 0,10 C0,15.523 4.477,20 10,20 C15.523,20 20,15.523 20,10 C20,4.477 15.523,0 10,0 L10,0 Z M10,18 C5.582,18 2,14.418 2,10 C2,5.582 5.582,2 10,2 C14.418,2 18,5.582 18,10 C18,14.418 14.418,18 10,18 L10,18 Z"></path>
                        <path d="M14,9 L11,9 L11,4 C11,3.448 10.552,3 10,3 C9.448,3 9,3.448 9,4 L9,10 C9,10.552 9.448,11 10,11 L14,11 C14.552,11 15,10.552 15,10 C15,9.447 14.552,9 14,9 L14,9 Z"></path>
                    </g>
                    <path d="M5,50 L2,53 L0,55 L5,55 L5,50 Z" id="Shape" fill="#CCCCCC"></path>
                    <path d="M0,859.515 L0,872.485 L6.485,866 L0,859.515 Z" id="Shape" fill="#434341"></path>
                    <path d="M6,909.515 L6,922.485 L-0.485,916 L6,909.515 Z" id="Shape" fill="#434341"></path>
                </g>
                <path d="M17.9790328,1410 C17.5895439,1409.659 17.331882,1409.391 17.1241545,1409.129 C19.4560946,1407.398 20.9751015,1404.63 20.9751015,1401.5 C20.9751015,1396.253 16.7276748,1392 11.4875507,1392 C6.24742666,1392 2,1396.253 2,1401.5 C2,1406.747 6.24742666,1411 11.4875507,1411 C12.8907095,1411 14.2169693,1410.687 15.4153967,1410.14 C15.8228621,1410.722 16.4250719,1411.242 17.3858112,1412 C18.5792452,1412.941 21.0689783,1413 22.9724806,1413 C22.9724806,1412.375 23.0343993,1411.75 22.9724806,1411 C20.4128392,1411 18.9427682,1410.845 17.9790328,1410 Z M11.5,1394 C12.881,1394 14,1395.119 14,1396.5 C14,1397.881 12.881,1399 11.5,1399 C10.119,1399 9,1397.881 9,1396.5 C9,1395.119 10.119,1394 11.5,1394 Z M13,1401.5 C13,1402.328 12.328,1403 11.5,1403 C10.672,1403 10,1402.328 10,1401.5 C10,1400.672 10.672,1400 11.5,1400 C12.328,1400 13,1400.672 13,1401.5 Z M6.5,1404 C5.119,1404 4,1402.881 4,1401.5 C4,1400.119 5.119,1399 6.5,1399 C7.881,1399 9,1400.119 9,1401.5 C9,1402.881 7.881,1404 6.5,1404 Z M11.5,1409 C10.119,1409 9,1407.881 9,1406.5 C9,1405.119 10.119,1404 11.5,1404 C12.881,1404 14,1405.119 14,1406.5 C14,1407.881 12.881,1409 11.5,1409 Z M14,1401.5 C14,1400.119 15.119,1399 16.5,1399 C17.881,1399 19,1400.119 19,1401.5 C19,1402.881 17.881,1404 16.5,1404 C15.119,1404 14,1402.881 14,1401.5 Z" id="Path" fill="#A6A6A6" sketch:type="MSShapeGroup"></path>
                <path d="M66,1209 C66.552,1209 67,1208.552 67,1208 L67,1199 C67,1198.448 66.552,1198 66,1198 L52,1198 C51.448,1198 51,1198.448 51,1199 L51,1208 C51,1208.552 51.448,1209 52,1209 L66,1209 Z M53.3079421,1199.02868 L58.9261264,1205.40659 L64.5727236,1199.00425 L66,1199 L58.9261264,1207 L52,1199.03293 L53.3079421,1199.02868 Z" id="Path" fill="#474747" sketch:type="MSShapeGroup"></path>
                <path d="M69,1494 L55,1494 C53.895,1494 53,1494.895 53,1496 L53,1508 C53,1509.104 53.895,1510 55,1510 L69,1510 C70.104,1510 71,1509.104 71,1508 L71,1496 C71,1494.895 70.104,1494 69,1494 Z M59,1507 L59,1497 L67,1502 L59,1507 Z" id="Path" fill="#F2F2F2" sketch:type="MSShapeGroup"></path>
                <path d="M72.9724806,1411 C70.4128392,1411 68.9427682,1410.845 67.9790328,1410 C67.5905426,1409.659 67.331882,1409.391 67.1241545,1409.129 C69.4560946,1407.398 70.9751015,1404.63 70.9751015,1401.5 C70.9751015,1396.253 66.7276748,1392 61.4875507,1392 C56.2474267,1392 52,1396.253 52,1401.5 C52,1406.747 56.2474267,1411 61.4875507,1411 C62.8897109,1411 64.2169693,1410.687 65.4153967,1410.14 C65.8228621,1410.722 66.4250719,1411.243 67.3858112,1412 C68.5792452,1412.941 71.0689783,1413 72.9724806,1413 C72.9724806,1412.375 73.0343993,1411.75 72.9724806,1411 Z M61.5,1394 C62.881,1394 64,1395.119 64,1396.5 C64,1397.881 62.881,1399 61.5,1399 C60.119,1399 59,1397.881 59,1396.5 C59,1395.119 60.119,1394 61.5,1394 Z M63,1401.5 C63,1402.328 62.328,1403 61.5,1403 C60.671,1403 60,1402.328 60,1401.5 C60,1400.672 60.671,1400 61.5,1400 C62.328,1400 63,1400.672 63,1401.5 Z M56.5,1404 C55.119,1404 54,1402.881 54,1401.5 C54,1400.119 55.119,1399 56.5,1399 C57.881,1399 59,1400.119 59,1401.5 C59,1402.881 57.881,1404 56.5,1404 Z M61.5,1409 C60.119,1409 59,1407.881 59,1406.5 C59,1405.119 60.119,1404 61.5,1404 C62.881,1404 64,1405.119 64,1406.5 C64,1407.881 62.881,1409 61.5,1409 Z M64,1401.5 C64,1400.119 65.119,1399 66.5,1399 C67.881,1399 69,1400.119 69,1401.5 C69,1402.881 67.881,1404 66.5,1404 C65.119,1404 64,1402.881 64,1401.5 Z" id="Path" fill="#F2F2F2" sketch:type="MSShapeGroup"></path>
                <path d="M17.9790328,1360 C17.5895439,1359.659 17.331882,1359.391 17.1241545,1359.129 C19.4560946,1357.398 20.9751015,1354.63 20.9751015,1351.5 C20.9751015,1346.253 16.7276748,1342 11.4875507,1342 C6.24742666,1342 2,1346.253 2,1351.5 C2,1356.747 6.24742666,1361 11.4875507,1361 C12.8897109,1361 14.2169693,1360.687 15.4153967,1360.14 C15.8228621,1360.723 16.4250719,1361.242 17.3858112,1362 C18.5792452,1362.941 21.0689783,1363 22.9724806,1363 C22.9724806,1362.375 23.0343993,1361.75 22.9724806,1361 C20.4128392,1361 18.9427682,1360.845 17.9790328,1360 Z M11.5,1344 C12.881,1344 14,1345.119 14,1346.5 C14,1347.881 12.881,1349 11.5,1349 C10.119,1349 9,1347.881 9,1346.5 C9,1345.119 10.119,1344 11.5,1344 Z M13,1351.5 C13,1352.328 12.328,1353 11.5,1353 C10.672,1353 10,1352.328 10,1351.5 C10,1350.671 10.672,1350 11.5,1350 C12.328,1350 13,1350.671 13,1351.5 Z M6.5,1354 C5.119,1354 4,1352.881 4,1351.5 C4,1350.119 5.119,1349 6.5,1349 C7.881,1349 9,1350.119 9,1351.5 C9,1352.881 7.881,1354 6.5,1354 Z M11.5,1359 C10.119,1359 9,1357.881 9,1356.5 C9,1355.119 10.119,1354 11.5,1354 C12.881,1354 14,1355.119 14,1356.5 C14,1357.881 12.881,1359 11.5,1359 Z M14,1351.5 C14,1350.119 15.119,1349 16.5,1349 C17.881,1349 19,1350.119 19,1351.5 C19,1352.881 17.881,1354 16.5,1354 C15.119,1354 14,1352.881 14,1351.5 Z" id="Path" fill="#CCCCCC" sketch:type="MSShapeGroup"></path>
                <path d="M2,1209 L16,1209 C16.552,1209 17,1208.552 17,1208 L17,1199 C17,1198.448 16.552,1198 16,1198 L2,1198 C1.448,1198 1,1198.448 1,1199 L1,1208 C1,1208.552 1.448,1209 2,1209 Z M3.30794209,1199.02868 L8.92612637,1205.40659 L14.5727236,1199.00425 L16,1199 L8.92612637,1207 L2,1199.03293 L3.30794209,1199.02868 Z" id="Path" fill="#A6A6A6" sketch:type="MSShapeGroup"></path>
                <path d="M5,1460 L19,1460 C20.104,1460 21,1459.104 21,1458 L21,1446 C21,1444.895 20.104,1444 19,1444 L5,1444 C3.895,1444 3,1444.895 3,1446 L3,1458 C3,1459.104 3.895,1460 5,1460 Z M9,1447 L17,1452 L9,1457 L9,1447 Z" id="Path" fill="#CCCCCC" sketch:type="MSShapeGroup"></path>
                <path d="M18.5,1554 C18.21,1554 17.932,1554.046 17.663,1554.112 L14.06,1547.872 C14.639,1547.247 15,1546.418 15,1545.5 C15,1543.567 13.433,1542 11.5,1542 C9.567,1542 8,1543.567 8,1545.5 C8,1546.736 8.645,1547.817 9.612,1548.44 L6.152,1554.432 C5.658,1554.166 5.101,1554 4.5,1554 C2.567,1554 1,1555.567 1,1557.5 C1,1559.433 2.567,1561 4.5,1561 C6.262,1561 7.705,1559.694 7.95,1558 L15.051,1558 C15.295,1559.694 16.738,1561 18.5,1561 C20.433,1561 22,1559.433 22,1557.5 C22,1555.567 20.433,1554 18.5,1554 Z M15.4423515,1556 L8.03071386,1556 C8.01823635,1555.97343 8.0124775,1555.9439 8,1555.91732 L11.8363527,1549.10335 C12.0791842,1549.0935 12.3143371,1549.05807 12.5418116,1549 L16,1555.14173 C15.7725255,1555.39469 15.590162,1555.68799 15.4423515,1556 Z" id="Path" fill="#CCCCCC" sketch:type="MSShapeGroup"></path>
                <path d="M3,1508 C3,1509.104 3.895,1510 5,1510 L19,1510 C20.104,1510 21,1509.104 21,1508 L21,1496 C21,1494.895 20.104,1494 19,1494 L5,1494 C3.895,1494 3,1494.895 3,1496 L3,1508 Z M17,1502 L9,1507 L9,1497 L17,1502 Z" id="Path" fill="#A6A6A6" sketch:type="MSShapeGroup"></path>
                <path d="M3,1261 L21,1261 L21,1243 L3,1243 L3,1261 Z M5,1245 L19,1245 L19,1259 L5,1259 L5,1245 Z M7,1253 L12,1253 L12,1247 L7,1247 L7,1253 Z M13,1249 L17,1249 L17,1247 L13,1247 L13,1249 Z M7,1257 L17,1257 L17,1255 L7,1255 L7,1257 Z M13,1253 L17,1253 L17,1251 L13,1251 L13,1253 Z" id="Path" fill="#CCCCCC" sketch:type="MSShapeGroup"></path>
            </g>
            <path d="M179.161414,1311 L172,1311 L172,1292 L189,1292 L189,1298.8267 L180.54021,1307.28649 L182.396967,1309.14324 L180.54021,1307.28649 L179.161414,1311 L179.161414,1311 Z M185.311977,1311 L189,1311 L189,1307.31198 L185.311977,1311 L185.311977,1311 L185.311977,1311 Z M174,1294 L174,1296 L187,1296 L187,1294 L174,1294 L174,1294 Z M174,1298 L174,1300 L187,1300 L187,1298 L174,1298 L174,1298 Z M174,1302 L174,1304 L183,1304 L183,1302 L174,1302 Z M190.828427,1298.34315 L182.343146,1306.82843 L185.171573,1309.65685 L193.656854,1301.17157 L190.828427,1298.34315 Z M181.5,1307.67157 L184.328427,1310.5 L180.085786,1311.91421 L181.5,1307.67157 Z" id="Rectangle-31" fill="#CCCCCC" sketch:type="MSShapeGroup"></path>
        </g>
    </g>
</svg>